<?xml version="1.0" encoding="utf-8"?>
<!-- Generator: Adobe Illustrator 19.0.0, SVG Export Plug-In . SVG Version: 6.00 Build 0)  -->
<svg version="1.1" id="Layer_1" xmlns="http://www.w3.org/2000/svg" xmlns:xlink="http://www.w3.org/1999/xlink" x="0px" y="0px"
	 viewBox="0 0 612 792" style="enable-background:new 0 0 612 792;" xml:space="preserve">
<style type="text/css">
	.st0{fill:#FEFEFE;}
	.st1{fill:#2569F1;}
	.st2{fill:#276AF1;}
</style>
<g>
	<g>
		<path class="st0" d="M311.4,699.6c-95,0-189.9-0.3-284.9,0.4c-11.8,0.1-13.1-3.2-13.1-13.6c0.3-189.9,0.4-379.9-0.1-569.8
			c0-11.8,3.2-13.1,13.6-13.1c189.9,0.3,379.9,0.4,569.8-0.1c11.8,0,13.1,3.2,13.1,13.6c-0.3,189.9-0.4,379.9,0.1,569.8
			c0,11.8-3.2,13.1-13.6,13.1C501.4,699.4,406.4,699.6,311.4,699.6z"/>
		<path class="st1" d="M17.4,424.3c0-3.5,0-6.9,0-10.3c0-81.9-0.1-163.8,0.1-245.8c0.1-37.7,22.6-60.7,60-60.7
			c153.9-0.2,307.8-0.2,461.7,0c36.2,0,59.1,23.2,59.2,59.6c0.2,153.9,0.2,307.8,0,461.7c0,36.4-23,59.3-59.3,59.5
			c-50.3,0.3-100.6-0.6-150.8,0.5c-14.9,0.3-17-5.1-16.9-18.1c0.7-54.6-0.1-109.2,0.6-163.8c0.2-12.8-3-17.1-16.4-16.7
			c-37.8,0.9-75.7,0.6-113.6,0.1c-10.5-0.1-13.6,3.2-13.8,13.7c-1.2,42.8-1.5,42.8,40.3,42.8c6.2,0,12.5-0.6,18.6,0.2
			c6.8,0.8,17.4-4.3,19.7,4c2.6,9.3,3.9,20.2-4.3,29.8c-33,39-85.8,57.7-130.3,43c-50.8-16.8-76-55.8-83.5-106.6
			c-4.7-31.8-0.1-63.1,14.9-92.2c39.5-76.9,140.4-84.1,189.6-13c6.3,9.1,10,11.9,19.1,3.7c9.2-8.3,19.2-16,30-22
			c16.5-9.2,14.5-18.5,4.7-32.1c-45.7-63.5-143.7-86.4-222-50.7c-44.7,20.4-77.2,53.2-97.7,97.9c-2.3,5.1-4.5,10.2-6.8,15.3
			C20.5,424.3,19.5,424.2,17.4,424.3z"/>
		<path class="st2" d="M307.3,651.3c1.5,37.2,1.5,37.2-31.2,37.2c-6.6,0-13.2,0-20.2-1.3C273.9,677.6,290.2,666.1,307.3,651.3z"/>
	</g>
</g>
</svg>
