<?xml version="1.0" encoding="utf-8"?>
<!-- Generator: Adobe Illustrator 19.0.0, SVG Export Plug-In . SVG Version: 6.00 Build 0)  -->
<svg version="1.1" id="Layer_1" xmlns="http://www.w3.org/2000/svg" xmlns:xlink="http://www.w3.org/1999/xlink" x="0px" y="0px"
	 viewBox="0 0 612 792" style="enable-background:new 0 0 612 792;" xml:space="preserve">
<style type="text/css">
	.st0{fill:#FEFEFE;}
	.st1{fill:#2569F1;}
	.st2{fill:#D6E3FC;}
	.st3{fill:#5E8FF4;}
	.st4{fill:#276AF1;}
</style>
<g>
	<g>
		<path class="st0" d="M27.8,393.3c0-15,0.1-29.9-0.1-44.9c0-3.1,0.6-3.8,3.8-3.8c101.7,0.1,203.3,0.1,305,0.1
			c-0.2,2.3-2.3,2.1-3.8,2.6c-11.6,3.8-17.5,11.5-17.8,23.8c0,1.1-0.1,2.1,0,3.2c0.1,3.5-1.4,5.6-5.1,5.6c-4,0-4.1,2.7-4.1,5.6
			c0,2.7,0,5.4,3.8,5.5c4.6,0,5.4,3,5.4,6.8c0,13.3,0,26.6,0,39.8c0,7.4,0,7.4,7.3,7.4c0.6,0,1.2,0,1.8,0c6.3,0,6.5-0.2,6.5-6.4
			c0-13.1,0-26.3,0-39.4c0-7.4,0.3-7.9,7.5-8.2c4.3-0.2,4.4-2.7,4.4-5.8c0-3.2-0.6-5.2-4.4-5.3c-7.3-0.3-8.5-2.3-6.8-9.6
			c1.8-7.6,6.4-11.4,13.4-11.2c6.5,0.2,10.9,4.6,12.1,12.1c0.4,2.3,0.3,4.6,0.3,6.9c0,17.1,0,34.2,0,51.3c0,10.5,6,16.4,16.4,16.6
			c4.2,0.1,8.2-0.5,12.2-1.4c2.9-0.7,4.1-2.4,3.4-5.3c-0.3-1.5-0.6-3-0.8-4.5c-0.3-2.1-1.3-3.5-3.7-2.9c-7.9,1.9-11.9-3.3-11.9-11.4
			c0-15.3,0-30.5,0-45.8c0-2.3,0.1-4.6-0.2-6.9c-1.3-9.9-6.5-16.5-15.9-19.9c-1.4-0.5-3-0.8-4.2-1.7c-0.5-0.4-0.6-0.9-0.3-1.4
			c77.2,0,154.5,0,231.7-0.1c3.1,0,3.8,0.6,3.8,3.8c-0.1,32.5-0.1,65,0,97.5c0,2.7-0.6,3.3-3.3,3.3c-184.4-0.1-368.8-0.1-553.2,0
			c-2.7,0-3.3-0.5-3.3-3.3c0.2-15.1,0.1-30.2,0.1-45.3c0.5-0.3,0.9-0.2,1.3,0.2c1.4,2.8,1.6,5.9,2.3,8.8c4.6,19.7,22.8,37,45.5,35.6
			c7.9-0.5,14.8-3.1,21-8c1.2-0.9,2.4-2.4,4-1.6c1.5,0.8,1.2,2.6,1.4,4.1c0.2,1.9-0.7,4.5,1.9,5c3.4,0.6,7,1.2,10.2-0.5
			c1.1-0.6,0.9-2.2,0.9-3.4c0-13.1,0-26.2,0-39.4c0-3.2-1.5-4.3-4.5-4.2c-7.8,0.1-15.6,0.2-23.3,0c-4.3-0.1-4.6,2.3-4.5,5.6
			c0.1,5.1,0.4,5.6,4.8,5.7c2.7,0.1,5.5,0,8.2,0c5.8,0.2,8,4.1,5.1,9.2c-0.7,1.2-1.6,2.2-2.6,3.1c-9.4,8.6-20.1,13.2-32.6,8.4
			c-12.2-4.7-18.5-14.6-19.9-27.4c-1.3-11.6,1.3-22.1,9.9-30.6c11.2-11.1,30.6-10.1,40.8,2c3.4,4,3.4,4,7.6,1
			c8.4-6.1,8.4-6.4,1.1-13.8c-13.6-13.6-37.9-15.4-55-4.2c-11,7.3-17.7,17.4-20.4,30.3c-0.5,2.2-0.6,4.6-1.8,6.6
			C28.7,393.5,28.3,393.6,27.8,393.3z"/>
		<path class="st1" d="M352.1,345.6c13.1,1.7,21.7,11,21.8,24.5c0.2,16.6,0.1,33.3,0.1,49.9c0,9.9,2.5,12,12.1,10
			c2-0.4,2.7-0.1,3,1.9c0.5,3.5,1.1,6.9,1.8,10.3c0.3,1.5-0.2,2.2-1.6,2.7c-7.4,2.3-14.8,3.9-22.4,1.6c-7.5-2.2-11.3-7.5-11.3-15.3
			c0-17.7,0-35.4,0-53.1c0-2.6,0-5.2-0.4-7.7c-1.1-6.6-4.6-9.7-10.5-10c-6.6-0.3-10.3,2.7-12,9.5c-0.1,0.6-0.3,1.2-0.4,1.8
			c-1.2,6.4-1,6.6,5.5,6.6c7,0.1,5.9-0.9,6,6.1c0.1,7.8,0,8.1-7.8,7.8c-3.6-0.1-4.2,1.1-4.2,4.4c0.2,15.3,0,30.5,0.1,45.8
			c0,3.1-0.6,4.4-4,4.1c-3.6-0.3-7.3-0.3-11,0c-2.8,0.2-3.6-0.8-3.6-3.6c0.1-15.4-0.1-30.8,0.2-46.2c0.1-3.7-1.2-5-4.6-4.3
			c-4,0.7-5.7-0.9-5-4.9c0.1-0.7,0-1.5,0-2.3c0-6.5,0-6.7,6.3-6.8c2.8,0,3.3-1.2,3.2-3.6c-0.1-2.6-0.1-5.2,0.2-7.8
			c1.6-10.9,7.8-17.9,18.4-21c1.4-0.4,3.1,0,4.2-1.3c3.7,0,7.3,0,11,0C348.8,345.8,350.7,344.6,352.1,345.6z"/>
		<path class="st2" d="M28.6,400.6l-0.4,0l-0.4,0c0-2.4,0-4.9,0-7.3c0.2-0.1,0.5-0.1,0.8,0C30.6,395.7,30.6,398.2,28.6,400.6z"/>
		<path class="st3" d="M352.1,345.6c-1.6,0.1-3.3,0.6-4.7-0.8c1.5,0,3.1,0,4.6,0C351.9,345,352,345.3,352.1,345.6z"/>
		<path class="st1" d="M28.6,400.6c0-2.5,0-4.9,0-7.4c3.1-33,33.3-53.3,63.9-43c8.5,2.9,15.2,8.2,20.2,15.6c1.5,2.2,1.7,3.8-0.9,5.2
			c-0.8,0.4-1.5,1.1-2.2,1.6c-2.8,2.1-5.5,5.5-8.5,5.9c-3.1,0.4-4-4.5-6.4-6.7c-12.2-11.2-31.6-9.2-40.8,4.5
			c-8,11.8-8.2,29.3-0.2,41.1c11.5,16.7,33.6,16.7,47.6-0.1c1.6-1.9,1.1-4.5,0.5-6.6c-0.6-1.9-2.9-0.8-4.5-0.9
			c-1.8-0.2-3.7,0.1-5.5-0.1c-3-0.2-7.3,1.5-8.7-0.7c-1.9-3-0.5-7.4-0.6-11.2c-0.1-1.7,1.1-1.9,2.4-1.9c10.1,0,20.1,0,30.2,0
			c2.1,0,2.6,0.8,2.6,2.7c0,15,0,29.9,0,44.9c0,1.9-0.7,2.8-2.7,2.7c-0.6-0.1-1.2,0-1.8,0c-3.5-0.1-7.7,1-10.3-0.6
			c-2.7-1.6-0.2-6.2-1.2-9.3c-0.3,0-0.7-0.1-0.9,0.1c-18.5,17.6-48.5,11.8-63-9.2C32.3,419.1,29.4,410.2,28.6,400.6z"/>
		<path class="st1" d="M272.3,386.3c0-12.8,0.1-24.3-0.1-35.9c0-3.2,0.4-4.9,4.1-4.4c4.6,0.5,10.9-2,13.6,1.1
			c2.3,2.6,0.7,8.7,0.7,13.3c0,21,0,42.1,0,63.1c0,2.9-0.3,6,3.3,7.2c1.4,0.5,1.1,1.7,1.1,2.7c0,2.6-0.3,5.2,0.1,7.8
			c0.8,4.8-1.5,6-5.7,6.2c-9.1,0.4-12.4-2.1-14.8-12c-11.5,12.5-24.8,15.8-38.4,9.6c-13.5-6.2-22-22-20.4-37.8
			c0.8-8.2,3.2-15.8,8.4-22.3c12.2-15.4,33.8-15.6,46.2-0.4C270.9,384.7,271.3,385.1,272.3,386.3z"/>
		<path class="st1" d="M510.1,428.9c3-7.9,5.7-14.9,8.4-22c0.6-1.7-0.4-3-0.9-4.3c-3.3-8.2-6.5-16.4-10-24.6
			c-1.3-3.1-0.4-3.5,2.5-3.6c10.8-0.2,10.8-0.3,14.3,10c1.3,3.7,2.6,7.3,4.2,12c2.3-6.6,4.5-12.3,6.3-18c0.9-3,2.3-4,5.5-4
			c10.9,0.1,10.9,0,6.8,10.2c-2,5.1-3.8,10.3-6.2,15.2c-2.1,4.2-1.9,8-0.1,12.1c2.2,5,4,10.2,5.9,15.3c0.1,0.2,0.4,0.4,0.9,0.7
			c6.5-16.5,13-32.9,19.3-49.4c1.2-3.2,2.6-4.8,6.2-4.4c2.7,0.3,5.5,0.2,8.2,0c3.8-0.3,4.8,0.6,3.1,4.5
			c-6.7,15.5-13.1,31.2-19.7,46.8c-2.5,5.9-5,11.8-7.4,17.7c-0.9,2.2-1.9,3.3-4.6,3.3c-11.8,0.1-11.8,0.2-16.2-10.9
			c-2.5-6.2-4.9-12.5-7.4-18.7c-0.1-0.2-0.4-0.4-1.1-0.9c-3.5,9-7.1,17.8-10.3,26.7c-1.1,3-2.5,3.8-5.6,3.8
			c-11.1-0.1-11.1,0-15.4-10.4c-8-19.1-15.9-38.3-24-57.4c-1.5-3.6-1.1-4.6,3-4.6c12.5,0.1,12.5,0,17.1,11.7
			C498.7,399.9,504.2,414,510.1,428.9z"/>
		<path class="st1" d="M432,373.1c21.7,0,37.7,15.8,37.8,37.4c0.1,21.4-16.2,37.4-37.8,37.3c-21.8-0.1-37.8-15.9-37.8-37.4
			C394.3,389,410.3,373.1,432,373.1z"/>
		<path class="st1" d="M149,388.6c3.1-3.4,5-5.8,7.1-7.9c2.8-2.9,6.1-5,9.9-6.3c7.9-2.7,9.2-1.8,9.2,6.4c0,2.9,0.8,6.3-0.3,8.6
			c-1.3,2.6-5.2,1.1-7.9,2c-3.2,1-6.5,1.9-9.3,3.8c-4.5,3-7.3,6.8-7.1,12.8c0.4,11.6,0,23.2,0.2,34.8c0,3-0.8,4-3.8,3.8
			c-4.7-0.3-10.8,1.5-13.7-0.9c-3-2.5-0.9-8.9-0.9-13.5c-0.1-17.9,0-35.7-0.1-53.6c0-3.4,0.9-4.8,4.3-4.3c4.2,0.6,9.8-2,12.2,1.1
			C150.6,378,149,383.2,149,388.6z"/>
		<path class="st1" d="M203.8,410.5c0,10.7-0.1,21.4,0.1,32c0.1,3.3-1,4.2-4.1,4c-3.6-0.3-7.3-0.3-11,0c-3,0.2-3.5-1-3.5-3.7
			c0.1-21.7,0.1-43.3,0-65c0-2.8,0.8-3.8,3.6-3.6c3.8,0.2,7.6,0.2,11.4,0c3-0.2,3.5,1.1,3.5,3.8
			C203.7,388.8,203.8,399.6,203.8,410.5z"/>
		<path class="st4" d="M203.8,355.4c0,9.1,0,9.1-9,9.1c-9.5,0-9.5,0-9.5-9.6c0-8.9,0-8.9,8.8-8.9c0.2,0,0.3,0,0.5,0
			C203.8,346,203.8,346,203.8,355.4z"/>
		<path class="st0" d="M272.3,412.8c1.6,7.4-1.9,13.5-9.5,17.2c-6.7,3.3-13.4,2.8-19.4-1.7c-6.6-4.9-9.1-11.8-8.3-19.7
			c0.8-8.1,4.3-15,12.3-18.4c11.1-4.7,24.9,4.8,24.9,16.9C272.3,408.6,272.3,410.1,272.3,412.8z"/>
		<path class="st0" d="M413.4,410.7c0.1-7.7,2.4-14.4,9.1-18.9c7-4.7,16.2-3.7,22.2,2.3c8.3,8.4,8.3,24.5-0.1,32.8
			c-5.3,5.2-11.7,6.5-18.5,4c-8.1-2.9-11.5-9.5-12.6-17.5C413.3,412.5,413.4,411.6,413.4,410.7z"/>
	</g>
</g>
</svg>
